<?xml version="1.0" encoding="utf-8"?>
<!-- Generator: Adobe Illustrator 18.1.1, SVG Export Plug-In . SVG Version: 6.00 Build 0)  -->
<svg version="1.1" id="Layer_1" xmlns="http://www.w3.org/2000/svg" xmlns:xlink="http://www.w3.org/1999/xlink" x="0px" y="0px"
	 viewBox="0 0 126 126" enable-background="new 0 0 126 126" xml:space="preserve">
<path fill="#FFFFFF" d="M56,36.2c3.3-0.3,5.9-3.2,5.9-6.6c0-3.6-3-6.6-6.6-6.6s-6.6,3-6.6,6.6c0,1.1,0.3,2.2,0.8,3.2l2.3,33l24.2,0L86,89.1L99,84
	l-2-4.8l-7.3,2.6l-9.6-22.1l-22.5,0.2l-0.3-4.2l16.3,0v-6.2l-16.9,0L56,36.2z"/>
<path fill="#FFFFFF" d="M80.3,83.6c-4.1,8.1-12.6,13.4-21.7,13.4c-13.4,0-24.3-10.9-24.3-24.3c0-9.4,5.7-18.1,14.2-22l0.5,7.2
	c-5,3.2-8.1,8.9-8.1,14.9c0,9.7,7.9,17.6,17.6,17.6c8.9,0,16.4-6.8,17.5-15.5L80.3,83.6z"/>
</svg>
