<?xml version="1.0" encoding="UTF-8"?>
<svg width="651px" height="682px" viewBox="0 0 651 500" version="1.1" xmlns="http://www.w3.org/2000/svg" xmlns:xlink="http://www.w3.org/1999/xlink">
    <!-- Generator: Sketch 43.2 (39069) - http://www.bohemiancoding.com/sketch -->
    <title>Group 7</title>
    <desc>Created with Sketch.</desc>
    <defs></defs>
    <g id="Page-1" stroke="none" stroke-width="1" fill="none" fill-rule="evenodd">
        <g id="Interact---slide-1" transform="translate(-214.000000, -610.000000)" fill="#FFFFFF">
            <g id="Group-7" transform="translate(-1.000000, 610.000000)">
                <!--<g id="Group" transform="translate(0.000000, 564.000000)" font-size="90" font-family="Bogle-Bold, Bogle" font-weight="bold">
                    <text id="Swipe-to-explore">
                        <tspan x="211.995" y="96">Swipe to explore</tspan>
                    </text>
                </g>-->
                <g id="Page-1" transform="translate(373.000000, 0.000000)">
                    <g id="Group-6">
                        <path d="M5.4121627,61.28034 L50.6631887,77.8412067 C51.56195,78.17194 52.5008346,78.3332733 53.4076205,78.3332733 C56.6816795,78.3332733 59.7631468,76.3004733 60.942771,73.0254067 C62.4674553,68.8388067 60.3168479,64.20854 56.1440277,62.6920067 L28.0978606,52.42314 C51.4897281,42.4850067 82.5852638,36.8222067 115.06104,36.8222067 C156.371961,36.8222067 194.176108,45.71974 217.808715,60.6350067 L189.794646,70.88774 C185.621826,72.41234 183.479243,77.0426067 184.995903,81.22114 C186.175527,84.4962067 189.256994,86.5290067 192.531053,86.5290067 C193.437839,86.5290067 194.368699,86.37574 195.275485,86.03694 L240.518487,69.4760733 C244.691307,67.9514733 246.83389,63.3212067 245.31723,59.1426733 L228.850639,13.6628067 C227.342004,9.47620667 222.703754,7.31434 218.563032,8.83894 C214.398237,10.36354 212.255654,14.9938067 213.772314,19.17234 L223.113011,44.9776067 C196.840293,29.6912733 157.43924,20.67274 115.053015,20.67274 C80.9161357,20.67274 47.9348062,26.6420733 22.6731943,37.1690733 L32.1663604,10.9846733 C33.6830201,6.79807333 31.5404374,2.16780667 27.3676171,0.651273333 C23.2188708,-0.86526 18.5966698,1.28854 17.0880348,5.47514 L0.613419378,50.9550067 C-0.116824171,52.9636067 -0.020528318,55.18194 0.878232972,57.1260067 C1.77699426,59.0700733 3.41402376,60.5462733 5.4121627,61.28034" id="Fill-4"></path>
                    </g>
                </g>
                <g id="one-finger-tap-gesture-of-outlined-hand-symbol" transform="translate(359.000000, 106.000000)" fill-rule="nonzero">
                    <path d="M322.854893,156.296296 C313.460165,156.296296 305.631635,159.422222 299.367664,164.110702 L299.367664,164.110702 C299.367664,142.229221 282.144407,125.037037 260.223376,125.037037 C250.828648,125.037037 241.433102,128.162963 233.603753,134.414815 C227.342239,118.785185 213.249738,109.407407 197.591859,109.407407 C188.197131,109.407407 180.367782,112.533333 174.104631,117.221814 L174.104631,39.0736655 C174.104631,17.192184 156.880554,0 134.960342,0 C113.04013,0 95.8160534,17.1930012 95.8160534,39.0736655 L95.8160534,178.177778 C64.5002949,150.044444 30.0529607,128.162963 8.13192976,150.044444 C-23.1838287,181.303704 42.579264,242.258851 92.6844775,334.474074 C128.698009,398.555147 178.803223,422 228.908436,422 C302.500059,422 362,362.607407 362,289.148557 L362,195.370779 C362,173.48848 344.775924,156.296296 322.854893,156.296296 Z M346.342121,229.755964 L346.342121,289.148557 C346.342121,350.104521 293.105331,406.371188 228.907617,406.371188 C169.407676,406.371188 134.960342,373.549374 106.776159,328.223039 C45.7100212,225.067484 1.86795936,178.178595 19.0920359,160.985594 C36.3161123,143.79341 78.5919769,181.303704 111.473114,215.689706 L111.473114,39.0736655 C111.473114,26.5699618 122.434039,15.6288124 134.960342,15.6288124 C147.486645,15.6288124 158.44757,26.5699618 158.44757,39.0736655 L158.44757,203.184368 L174.105449,203.184368 L174.105449,148.480256 C174.105449,135.976552 185.065556,125.035403 197.592678,125.035403 C210.118162,125.035403 221.079906,135.976552 221.079906,148.480256 L221.079906,187.555556 L236.737785,187.555556 L236.737785,164.110702 C236.737785,151.606999 247.697891,140.665849 260.225013,140.665849 C272.750498,140.665849 283.712241,151.606999 283.712241,164.110702 L283.712241,203.184368 L299.370121,203.184368 L299.370121,195.369962 C299.370121,182.866258 310.330227,171.925109 322.857349,171.925109 C335.382833,171.925109 346.344577,182.866258 346.344577,195.369962 L346.344577,229.755964 L346.342121,229.755964 Z" id="Shape"></path>
                </g>
            </g>
        </g>
    </g>
</svg>
